<svg width="60" height="60" viewBox="0 0 60 60" fill="none" xmlns="http://www.w3.org/2000/svg">
<circle cx="30" cy="30" r="29.5" stroke="black"/>
<path d="M23.9432 10.5455V28H21.8295V12.7614H21.7273L17.4659 15.5909V13.4432L21.8295 10.5455H23.9432ZM28.9631 28V26.4659L34.7244 20.1591C35.4006 19.4205 35.9574 18.7784 36.3949 18.233C36.8324 17.6818 37.1563 17.1648 37.3665 16.6818C37.5824 16.1932 37.6903 15.6818 37.6903 15.1477C37.6903 14.5341 37.5426 14.0028 37.2472 13.554C36.9574 13.1051 36.5597 12.7585 36.054 12.5142C35.5483 12.2699 34.9801 12.1477 34.3494 12.1477C33.679 12.1477 33.0938 12.2869 32.5938 12.5653C32.0994 12.8381 31.7159 13.2216 31.4432 13.7159C31.1761 14.2102 31.0426 14.7898 31.0426 15.4545H29.0312C29.0312 14.4318 29.267 13.5341 29.7386 12.7614C30.2102 11.9886 30.8523 11.3864 31.6648 10.9545C32.483 10.5227 33.4006 10.3068 34.4176 10.3068C35.4403 10.3068 36.3466 10.5227 37.1364 10.9545C37.9261 11.3864 38.5455 11.9687 38.9943 12.7017C39.4432 13.4347 39.6676 14.25 39.6676 15.1477C39.6676 15.7898 39.5511 16.4176 39.3182 17.0312C39.0909 17.6392 38.6932 18.3182 38.125 19.0682C37.5625 19.8125 36.7812 20.7216 35.7812 21.7955L31.8608 25.9886V26.125H39.9744V28H28.9631Z" fill="#666666"/>
<path d="M21 43.1818L24.0455 36.2727H25.3182L21.5455 45H20.4545L16.75 36.2727H18L21 43.1818ZM17.5682 36.2727V45H16.2273V36.2727H17.5682ZM24.4318 45V36.2727H25.7727V45H24.4318ZM31.8864 45.1818C31.0455 45.1818 30.3201 44.9962 29.7102 44.625C29.1042 44.25 28.6364 43.7273 28.3068 43.0568C27.9811 42.3826 27.8182 41.5985 27.8182 40.7045C27.8182 39.8106 27.9811 39.0227 28.3068 38.3409C28.6364 37.6553 29.0947 37.1212 29.6818 36.7386C30.2727 36.3523 30.9621 36.1591 31.75 36.1591C32.2045 36.1591 32.6534 36.2348 33.0966 36.3864C33.5398 36.5379 33.9432 36.7841 34.3068 37.125C34.6705 37.4621 34.9602 37.9091 35.1761 38.4659C35.392 39.0227 35.5 39.7083 35.5 40.5227V41.0909H28.7727V39.9318H34.1364C34.1364 39.4394 34.0379 39 33.8409 38.6136C33.6477 38.2273 33.3712 37.9223 33.0114 37.6989C32.6553 37.4754 32.2348 37.3636 31.75 37.3636C31.2159 37.3636 30.7538 37.4962 30.3636 37.7614C29.9773 38.0227 29.6799 38.3636 29.4716 38.7841C29.2633 39.2045 29.1591 39.6553 29.1591 40.1364V40.9091C29.1591 41.5682 29.2727 42.1269 29.5 42.5852C29.7311 43.0398 30.0511 43.3864 30.4602 43.625C30.8693 43.8598 31.3447 43.9773 31.8864 43.9773C32.2386 43.9773 32.5568 43.928 32.8409 43.8295C33.1288 43.7273 33.3769 43.5758 33.5852 43.375C33.7936 43.1705 33.9545 42.9167 34.0682 42.6136L35.3636 42.9773C35.2273 43.4167 34.9981 43.803 34.6761 44.1364C34.3542 44.4659 33.9564 44.7235 33.483 44.9091C33.0095 45.0909 32.4773 45.1818 31.8864 45.1818ZM41.0852 45.1818C40.267 45.1818 39.5625 44.9886 38.9716 44.6023C38.3807 44.2159 37.9261 43.6837 37.608 43.0057C37.2898 42.3277 37.1307 41.553 37.1307 40.6818C37.1307 39.7955 37.2936 39.0133 37.6193 38.3352C37.9489 37.6534 38.4072 37.1212 38.9943 36.7386C39.5852 36.3523 40.2746 36.1591 41.0625 36.1591C41.6761 36.1591 42.2292 36.2727 42.7216 36.5C43.214 36.7273 43.6174 37.0455 43.9318 37.4545C44.2462 37.8636 44.4413 38.3409 44.517 38.8864H43.1761C43.0739 38.4886 42.8466 38.1364 42.4943 37.8295C42.1458 37.5189 41.6761 37.3636 41.0852 37.3636C40.5625 37.3636 40.1042 37.5 39.7102 37.7727C39.3201 38.0417 39.0152 38.4223 38.7955 38.9148C38.5795 39.4034 38.4716 39.9773 38.4716 40.6364C38.4716 41.3106 38.5777 41.8977 38.7898 42.3977C39.0057 42.8977 39.3087 43.286 39.6989 43.5625C40.0928 43.839 40.5549 43.9773 41.0852 43.9773C41.4337 43.9773 41.75 43.9167 42.0341 43.7955C42.3182 43.6742 42.5587 43.5 42.7557 43.2727C42.9527 43.0455 43.0928 42.7727 43.1761 42.4545H44.517C44.4413 42.9697 44.2538 43.4337 43.9545 43.8466C43.6591 44.2557 43.267 44.5814 42.7784 44.8239C42.2936 45.0625 41.7292 45.1818 41.0852 45.1818Z" fill="#666666"/>
</svg>
