<svg width="60" height="60" viewBox="0 0 60 60" fill="none" xmlns="http://www.w3.org/2000/svg">
<circle cx="30" cy="30" r="29.5" stroke="black"/>
<path d="M29.7045 28.2386C28.5795 28.2386 27.5767 28.0455 26.696 27.6591C25.821 27.2727 25.125 26.7358 24.608 26.0483C24.0966 25.3551 23.8182 24.5511 23.7727 23.6364H25.9205C25.9659 24.1989 26.1591 24.6847 26.5 25.0938C26.8409 25.4972 27.2869 25.8097 27.8381 26.0312C28.3892 26.2528 29 26.3636 29.6705 26.3636C30.4205 26.3636 31.0852 26.233 31.6648 25.9716C32.2443 25.7102 32.6989 25.3466 33.0284 24.8807C33.358 24.4148 33.5227 23.875 33.5227 23.2614C33.5227 22.6193 33.3636 22.054 33.0455 21.5653C32.7273 21.071 32.2614 20.6847 31.6477 20.4062C31.0341 20.1278 30.2841 19.9886 29.3977 19.9886H28V18.1136H29.3977C30.0909 18.1136 30.6989 17.9886 31.2216 17.7386C31.75 17.4886 32.1619 17.1364 32.4574 16.6818C32.7585 16.2273 32.9091 15.6932 32.9091 15.0795C32.9091 14.4886 32.7784 13.9744 32.517 13.5369C32.2557 13.0994 31.8864 12.7585 31.4091 12.5142C30.9375 12.2699 30.3807 12.1477 29.7386 12.1477C29.1364 12.1477 28.5682 12.2585 28.0341 12.4801C27.5057 12.696 27.0739 13.0114 26.7386 13.4261C26.4034 13.8352 26.2216 14.3295 26.1932 14.9091H24.1477C24.1818 13.9943 24.4574 13.1932 24.9744 12.5057C25.4915 11.8125 26.1676 11.2727 27.0028 10.8864C27.8438 10.5 28.767 10.3068 29.7727 10.3068C30.8523 10.3068 31.7784 10.5256 32.5511 10.9631C33.3239 11.3949 33.9176 11.9659 34.3324 12.6761C34.7472 13.3864 34.9545 14.1534 34.9545 14.9773C34.9545 15.9602 34.696 16.7983 34.179 17.4915C33.6676 18.1847 32.9716 18.6648 32.0909 18.9318V19.0682C33.1932 19.25 34.054 19.7187 34.6733 20.4744C35.2926 21.2244 35.6023 22.1534 35.6023 23.2614C35.6023 24.2102 35.3438 25.0625 34.8267 25.8182C34.3153 26.5682 33.6165 27.1591 32.7301 27.5909C31.8438 28.0227 30.8352 28.2386 29.7045 28.2386Z" fill="#666666"/>
<path d="M21 43.1818L24.0455 36.2727H25.3182L21.5455 45H20.4545L16.75 36.2727H18L21 43.1818ZM17.5682 36.2727V45H16.2273V36.2727H17.5682ZM24.4318 45V36.2727H25.7727V45H24.4318ZM31.8864 45.1818C31.0455 45.1818 30.3201 44.9962 29.7102 44.625C29.1042 44.25 28.6364 43.7273 28.3068 43.0568C27.9811 42.3826 27.8182 41.5985 27.8182 40.7045C27.8182 39.8106 27.9811 39.0227 28.3068 38.3409C28.6364 37.6553 29.0947 37.1212 29.6818 36.7386C30.2727 36.3523 30.9621 36.1591 31.75 36.1591C32.2045 36.1591 32.6534 36.2348 33.0966 36.3864C33.5398 36.5379 33.9432 36.7841 34.3068 37.125C34.6705 37.4621 34.9602 37.9091 35.1761 38.4659C35.392 39.0227 35.5 39.7083 35.5 40.5227V41.0909H28.7727V39.9318H34.1364C34.1364 39.4394 34.0379 39 33.8409 38.6136C33.6477 38.2273 33.3712 37.9223 33.0114 37.6989C32.6553 37.4754 32.2348 37.3636 31.75 37.3636C31.2159 37.3636 30.7538 37.4962 30.3636 37.7614C29.9773 38.0227 29.6799 38.3636 29.4716 38.7841C29.2633 39.2045 29.1591 39.6553 29.1591 40.1364V40.9091C29.1591 41.5682 29.2727 42.1269 29.5 42.5852C29.7311 43.0398 30.0511 43.3864 30.4602 43.625C30.8693 43.8598 31.3447 43.9773 31.8864 43.9773C32.2386 43.9773 32.5568 43.928 32.8409 43.8295C33.1288 43.7273 33.3769 43.5758 33.5852 43.375C33.7936 43.1705 33.9545 42.9167 34.0682 42.6136L35.3636 42.9773C35.2273 43.4167 34.9981 43.803 34.6761 44.1364C34.3542 44.4659 33.9564 44.7235 33.483 44.9091C33.0095 45.0909 32.4773 45.1818 31.8864 45.1818ZM41.0852 45.1818C40.267 45.1818 39.5625 44.9886 38.9716 44.6023C38.3807 44.2159 37.9261 43.6837 37.608 43.0057C37.2898 42.3277 37.1307 41.553 37.1307 40.6818C37.1307 39.7955 37.2936 39.0133 37.6193 38.3352C37.9489 37.6534 38.4072 37.1212 38.9943 36.7386C39.5852 36.3523 40.2746 36.1591 41.0625 36.1591C41.6761 36.1591 42.2292 36.2727 42.7216 36.5C43.214 36.7273 43.6174 37.0455 43.9318 37.4545C44.2462 37.8636 44.4413 38.3409 44.517 38.8864H43.1761C43.0739 38.4886 42.8466 38.1364 42.4943 37.8295C42.1458 37.5189 41.6761 37.3636 41.0852 37.3636C40.5625 37.3636 40.1042 37.5 39.7102 37.7727C39.3201 38.0417 39.0152 38.4223 38.7955 38.9148C38.5795 39.4034 38.4716 39.9773 38.4716 40.6364C38.4716 41.3106 38.5777 41.8977 38.7898 42.3977C39.0057 42.8977 39.3087 43.286 39.6989 43.5625C40.0928 43.839 40.5549 43.9773 41.0852 43.9773C41.4337 43.9773 41.75 43.9167 42.0341 43.7955C42.3182 43.6742 42.5587 43.5 42.7557 43.2727C42.9527 43.0455 43.0928 42.7727 43.1761 42.4545H44.517C44.4413 42.9697 44.2538 43.4337 43.9545 43.8466C43.6591 44.2557 43.267 44.5814 42.7784 44.8239C42.2936 45.0625 41.7292 45.1818 41.0852 45.1818Z" fill="#666666"/>
</svg>
