<svg width="60" height="60" viewBox="0 0 60 60" fill="none" xmlns="http://www.w3.org/2000/svg">
<circle cx="30" cy="30" r="29.5" stroke="black"/>
<path d="M29.8665 28.2386C28.5938 28.2386 27.4602 28.0199 26.4659 27.5824C25.4773 27.1392 24.696 26.5312 24.1222 25.7585C23.554 24.9801 23.2614 24.0824 23.2443 23.0653H26.9602C26.983 23.4915 27.1222 23.8665 27.3778 24.1903C27.6392 24.5085 27.9858 24.7557 28.4176 24.9318C28.8494 25.108 29.3352 25.196 29.875 25.196C30.4375 25.196 30.9347 25.0966 31.3665 24.8977C31.7983 24.6989 32.1364 24.4233 32.3807 24.071C32.625 23.7187 32.7472 23.3125 32.7472 22.8523C32.7472 22.3864 32.6165 21.9744 32.3551 21.6165C32.0994 21.2528 31.7301 20.9687 31.2472 20.7642C30.7699 20.5597 30.2017 20.4574 29.5426 20.4574H27.9148V17.7472H29.5426C30.0994 17.7472 30.5909 17.6506 31.017 17.4574C31.4489 17.2642 31.7841 16.9972 32.0227 16.6562C32.2614 16.3097 32.3807 15.9062 32.3807 15.446C32.3807 15.0085 32.2756 14.625 32.0653 14.2955C31.8608 13.9602 31.571 13.6989 31.196 13.5114C30.8267 13.3239 30.3949 13.2301 29.9006 13.2301C29.4006 13.2301 28.9432 13.321 28.5284 13.5028C28.1136 13.679 27.7812 13.9318 27.5312 14.2614C27.2812 14.5909 27.1477 14.9773 27.1307 15.4205H23.5938C23.6108 14.4148 23.8977 13.5284 24.4545 12.7614C25.0114 11.9943 25.7614 11.3949 26.7045 10.9631C27.6534 10.5256 28.7244 10.3068 29.9176 10.3068C31.1222 10.3068 32.1761 10.5256 33.0795 10.9631C33.983 11.4006 34.6847 11.9915 35.1847 12.7358C35.6903 13.4744 35.9403 14.304 35.9347 15.2244C35.9403 16.2017 35.6364 17.017 35.0227 17.6705C34.4148 18.3239 33.6222 18.7386 32.6449 18.9148V19.0511C33.929 19.2159 34.9063 19.6619 35.5767 20.3892C36.2528 21.1108 36.5881 22.0142 36.5824 23.0994C36.5881 24.0938 36.3011 24.9773 35.7216 25.75C35.1477 26.5227 34.3551 27.1307 33.3438 27.5739C32.3324 28.017 31.1733 28.2386 29.8665 28.2386Z" fill="#666666"/>
<path d="M18.9432 36.2727V38.1761H15.3182V45H12.9659V36.2727H18.9432ZM24.0497 45.1705C23.1671 45.1705 22.4039 44.983 21.7599 44.608C21.1198 44.2292 20.6255 43.7027 20.277 43.0284C19.9285 42.3504 19.7543 41.5644 19.7543 40.6705C19.7543 39.7689 19.9285 38.9811 20.277 38.3068C20.6255 37.6288 21.1198 37.1023 21.7599 36.7273C22.4039 36.3485 23.1671 36.1591 24.0497 36.1591C24.9323 36.1591 25.6937 36.3485 26.3338 36.7273C26.9777 37.1023 27.474 37.6288 27.8224 38.3068C28.1709 38.9811 28.3452 39.7689 28.3452 40.6705C28.3452 41.5644 28.1709 42.3504 27.8224 43.0284C27.474 43.7027 26.9777 44.2292 26.3338 44.608C25.6937 44.983 24.9323 45.1705 24.0497 45.1705ZM24.0611 43.2955C24.4626 43.2955 24.7978 43.1818 25.0668 42.9545C25.3357 42.7235 25.5384 42.4091 25.6747 42.0114C25.8149 41.6136 25.8849 41.161 25.8849 40.6534C25.8849 40.1458 25.8149 39.6932 25.6747 39.2955C25.5384 38.8977 25.3357 38.5833 25.0668 38.3523C24.7978 38.1212 24.4626 38.0057 24.0611 38.0057C23.6558 38.0057 23.3149 38.1212 23.0384 38.3523C22.7656 38.5833 22.5592 38.8977 22.419 39.2955C22.2827 39.6932 22.2145 40.1458 22.2145 40.6534C22.2145 41.161 22.2827 41.6136 22.419 42.0114C22.5592 42.4091 22.7656 42.7235 23.0384 42.9545C23.3149 43.1818 23.6558 43.2955 24.0611 43.2955ZM29.2372 47.5568V43.0795H29.9077C30.1009 42.9583 30.2562 42.7652 30.3736 42.5C30.4948 42.2348 30.5933 41.9223 30.669 41.5625C30.7486 41.2027 30.8092 40.8144 30.8509 40.3977C30.8963 39.9773 30.9361 39.553 30.9702 39.125L31.1974 36.2727H37.8906V43.0795H39.2429V47.5568H36.9361V45H31.6009V47.5568H29.2372ZM32.3168 43.0795H35.6065V38.1364H33.2543L33.1634 39.125C33.099 40.0568 33.0062 40.8485 32.8849 41.5C32.7637 42.1477 32.5743 42.6742 32.3168 43.0795ZM43.142 45.1648C42.5852 45.1648 42.089 45.0682 41.6534 44.875C41.2178 44.678 40.8731 44.3883 40.6193 44.0057C40.3693 43.6193 40.2443 43.1383 40.2443 42.5625C40.2443 42.0777 40.3333 41.6705 40.5114 41.3409C40.6894 41.0114 40.9318 40.7462 41.2386 40.5455C41.5455 40.3447 41.8939 40.1932 42.2841 40.0909C42.678 39.9886 43.0909 39.9167 43.5227 39.875C44.0303 39.822 44.4394 39.7727 44.75 39.7273C45.0606 39.678 45.286 39.6061 45.4261 39.5114C45.5663 39.4167 45.6364 39.2765 45.6364 39.0909V39.0568C45.6364 38.697 45.5227 38.4186 45.2955 38.2216C45.072 38.0246 44.7538 37.9261 44.3409 37.9261C43.9053 37.9261 43.5587 38.0227 43.3011 38.2159C43.0436 38.4053 42.8731 38.6439 42.7898 38.9318L40.5511 38.75C40.6648 38.2197 40.8883 37.7614 41.2216 37.375C41.5549 36.9848 41.9848 36.6856 42.5114 36.4773C43.0417 36.2652 43.6553 36.1591 44.3523 36.1591C44.8371 36.1591 45.3011 36.2159 45.7443 36.3295C46.1913 36.4432 46.5871 36.6193 46.9318 36.858C47.2803 37.0966 47.5549 37.4034 47.7557 37.7784C47.9564 38.1496 48.0568 38.5947 48.0568 39.1136V45H45.7614V43.7898H45.6932C45.553 44.0625 45.3655 44.303 45.1307 44.5114C44.8958 44.7159 44.6136 44.8769 44.2841 44.9943C43.9545 45.108 43.5739 45.1648 43.142 45.1648ZM43.8352 43.4943C44.1913 43.4943 44.5057 43.4242 44.7784 43.2841C45.0511 43.1402 45.2652 42.947 45.4205 42.7045C45.5758 42.4621 45.6534 42.1875 45.6534 41.8807V40.9545C45.5777 41.0038 45.4735 41.0492 45.3409 41.0909C45.2121 41.1288 45.0663 41.1648 44.9034 41.1989C44.7405 41.2292 44.5777 41.2576 44.4148 41.2841C44.2519 41.3068 44.1042 41.3277 43.9716 41.3466C43.6875 41.3883 43.4394 41.4545 43.2273 41.5455C43.0152 41.6364 42.8504 41.7595 42.733 41.9148C42.6155 42.0663 42.5568 42.2557 42.5568 42.483C42.5568 42.8125 42.6761 43.0644 42.9148 43.2386C43.1572 43.4091 43.464 43.4943 43.8352 43.4943Z" fill="#666666"/>
</svg>
