<svg width="60" height="60" viewBox="0 0 60 60" fill="none" xmlns="http://www.w3.org/2000/svg">
<circle cx="30" cy="30" r="29.5" stroke="black"/>
<path d="M23.1506 24.9318V22.0256L30.4375 10.5455H32.9432V14.5682H31.4602L26.8665 21.8381V21.9744H37.2216V24.9318H23.1506ZM31.5284 28V24.0455L31.5966 22.7585V10.5455H35.0568V28H31.5284Z" fill="#666666"/>
<path d="M18.9432 36.2727V38.1761H15.3182V45H12.9659V36.2727H18.9432ZM24.0497 45.1705C23.1671 45.1705 22.4039 44.983 21.7599 44.608C21.1198 44.2292 20.6255 43.7027 20.277 43.0284C19.9285 42.3504 19.7543 41.5644 19.7543 40.6705C19.7543 39.7689 19.9285 38.9811 20.277 38.3068C20.6255 37.6288 21.1198 37.1023 21.7599 36.7273C22.4039 36.3485 23.1671 36.1591 24.0497 36.1591C24.9323 36.1591 25.6937 36.3485 26.3338 36.7273C26.9777 37.1023 27.474 37.6288 27.8224 38.3068C28.1709 38.9811 28.3452 39.7689 28.3452 40.6705C28.3452 41.5644 28.1709 42.3504 27.8224 43.0284C27.474 43.7027 26.9777 44.2292 26.3338 44.608C25.6937 44.983 24.9323 45.1705 24.0497 45.1705ZM24.0611 43.2955C24.4626 43.2955 24.7978 43.1818 25.0668 42.9545C25.3357 42.7235 25.5384 42.4091 25.6747 42.0114C25.8149 41.6136 25.8849 41.161 25.8849 40.6534C25.8849 40.1458 25.8149 39.6932 25.6747 39.2955C25.5384 38.8977 25.3357 38.5833 25.0668 38.3523C24.7978 38.1212 24.4626 38.0057 24.0611 38.0057C23.6558 38.0057 23.3149 38.1212 23.0384 38.3523C22.7656 38.5833 22.5592 38.8977 22.419 39.2955C22.2827 39.6932 22.2145 40.1458 22.2145 40.6534C22.2145 41.161 22.2827 41.6136 22.419 42.0114C22.5592 42.4091 22.7656 42.7235 23.0384 42.9545C23.3149 43.1818 23.6558 43.2955 24.0611 43.2955ZM29.2372 47.5568V43.0795H29.9077C30.1009 42.9583 30.2562 42.7652 30.3736 42.5C30.4948 42.2348 30.5933 41.9223 30.669 41.5625C30.7486 41.2027 30.8092 40.8144 30.8509 40.3977C30.8963 39.9773 30.9361 39.553 30.9702 39.125L31.1974 36.2727H37.8906V43.0795H39.2429V47.5568H36.9361V45H31.6009V47.5568H29.2372ZM32.3168 43.0795H35.6065V38.1364H33.2543L33.1634 39.125C33.099 40.0568 33.0062 40.8485 32.8849 41.5C32.7637 42.1477 32.5743 42.6742 32.3168 43.0795ZM43.142 45.1648C42.5852 45.1648 42.089 45.0682 41.6534 44.875C41.2178 44.678 40.8731 44.3883 40.6193 44.0057C40.3693 43.6193 40.2443 43.1383 40.2443 42.5625C40.2443 42.0777 40.3333 41.6705 40.5114 41.3409C40.6894 41.0114 40.9318 40.7462 41.2386 40.5455C41.5455 40.3447 41.8939 40.1932 42.2841 40.0909C42.678 39.9886 43.0909 39.9167 43.5227 39.875C44.0303 39.822 44.4394 39.7727 44.75 39.7273C45.0606 39.678 45.286 39.6061 45.4261 39.5114C45.5663 39.4167 45.6364 39.2765 45.6364 39.0909V39.0568C45.6364 38.697 45.5227 38.4186 45.2955 38.2216C45.072 38.0246 44.7538 37.9261 44.3409 37.9261C43.9053 37.9261 43.5587 38.0227 43.3011 38.2159C43.0436 38.4053 42.8731 38.6439 42.7898 38.9318L40.5511 38.75C40.6648 38.2197 40.8883 37.7614 41.2216 37.375C41.5549 36.9848 41.9848 36.6856 42.5114 36.4773C43.0417 36.2652 43.6553 36.1591 44.3523 36.1591C44.8371 36.1591 45.3011 36.2159 45.7443 36.3295C46.1913 36.4432 46.5871 36.6193 46.9318 36.858C47.2803 37.0966 47.5549 37.4034 47.7557 37.7784C47.9564 38.1496 48.0568 38.5947 48.0568 39.1136V45H45.7614V43.7898H45.6932C45.553 44.0625 45.3655 44.303 45.1307 44.5114C44.8958 44.7159 44.6136 44.8769 44.2841 44.9943C43.9545 45.108 43.5739 45.1648 43.142 45.1648ZM43.8352 43.4943C44.1913 43.4943 44.5057 43.4242 44.7784 43.2841C45.0511 43.1402 45.2652 42.947 45.4205 42.7045C45.5758 42.4621 45.6534 42.1875 45.6534 41.8807V40.9545C45.5777 41.0038 45.4735 41.0492 45.3409 41.0909C45.2121 41.1288 45.0663 41.1648 44.9034 41.1989C44.7405 41.2292 44.5777 41.2576 44.4148 41.2841C44.2519 41.3068 44.1042 41.3277 43.9716 41.3466C43.6875 41.3883 43.4394 41.4545 43.2273 41.5455C43.0152 41.6364 42.8504 41.7595 42.733 41.9148C42.6155 42.0663 42.5568 42.2557 42.5568 42.483C42.5568 42.8125 42.6761 43.0644 42.9148 43.2386C43.1572 43.4091 43.464 43.4943 43.8352 43.4943Z" fill="#666666"/>
</svg>
