<svg width="60" height="60" viewBox="0 0 60 60" fill="none" xmlns="http://www.w3.org/2000/svg">
<circle cx="30" cy="30" r="29.5" stroke="black"/>
<path d="M29.7898 28.2386C28.5852 28.2386 27.5114 28.017 26.5682 27.5739C25.6307 27.1307 24.8864 26.5199 24.3352 25.7415C23.7841 24.9631 23.4972 24.071 23.4744 23.0653H27.054C27.0938 23.7415 27.3778 24.2898 27.9062 24.7102C28.4347 25.1307 29.0625 25.3409 29.7898 25.3409C30.3693 25.3409 30.8807 25.2131 31.3239 24.9574C31.7727 24.696 32.1222 24.3352 32.3722 23.875C32.6278 23.4091 32.7557 22.875 32.7557 22.2727C32.7557 21.6591 32.625 21.1193 32.3636 20.6534C32.108 20.1875 31.7528 19.8239 31.2983 19.5625C30.8438 19.3011 30.3239 19.1676 29.7386 19.1619C29.2273 19.1619 28.7301 19.267 28.2472 19.4773C27.7699 19.6875 27.3977 19.9744 27.1307 20.3381L23.8494 19.75L24.6761 10.5455H35.3466V13.5625H27.7188L27.267 17.9347H27.3693C27.6761 17.5028 28.1392 17.1449 28.7585 16.8608C29.3778 16.5767 30.071 16.4347 30.8381 16.4347C31.8892 16.4347 32.8267 16.6818 33.6506 17.1761C34.4744 17.6705 35.125 18.3494 35.6023 19.2131C36.0795 20.071 36.3153 21.0597 36.3097 22.179C36.3153 23.3551 36.0426 24.4006 35.4915 25.3153C34.946 26.2244 34.1818 26.9403 33.1989 27.4631C32.2216 27.9801 31.0852 28.2386 29.7898 28.2386Z" fill="#666666"/>
<path d="M16.4545 45L16.4432 43.0795H16.733C16.9375 43.0795 17.1136 43.0303 17.2614 42.9318C17.4129 42.8295 17.5379 42.6648 17.6364 42.4375C17.7348 42.2102 17.8125 41.9091 17.8693 41.5341C17.9261 41.1553 17.964 40.6894 17.983 40.1364L18.125 36.2727H24.7614V45H22.4545V38.1761H20.3011L20.1648 40.8409C20.1307 41.572 20.0417 42.2008 19.8977 42.7273C19.7576 43.2538 19.5625 43.6856 19.3125 44.0227C19.0625 44.3561 18.7614 44.6023 18.4091 44.7614C18.0568 44.9205 17.6477 45 17.1818 45H16.4545ZM30.6151 45.1705C29.7173 45.1705 28.9446 44.9886 28.2969 44.625C27.6529 44.2576 27.1567 43.7386 26.8082 43.0682C26.4598 42.3939 26.2855 41.5966 26.2855 40.6761C26.2855 39.7784 26.4598 38.9905 26.8082 38.3125C27.1567 37.6345 27.6473 37.1061 28.2798 36.7273C28.9162 36.3485 29.6624 36.1591 30.5185 36.1591C31.0942 36.1591 31.6302 36.2519 32.1264 36.4375C32.6264 36.6193 33.062 36.8939 33.4332 37.2614C33.8082 37.6288 34.0999 38.0909 34.3082 38.6477C34.5166 39.2008 34.6207 39.8485 34.6207 40.5909V41.2557H27.2514V39.7557H32.3423C32.3423 39.4072 32.2666 39.0985 32.1151 38.8295C31.9635 38.5606 31.7533 38.3504 31.4844 38.1989C31.2192 38.0436 30.9105 37.9659 30.5582 37.9659C30.1908 37.9659 29.8651 38.0511 29.581 38.2216C29.3007 38.3883 29.081 38.6136 28.9219 38.8977C28.7628 39.178 28.6813 39.4905 28.6776 39.8352V41.2614C28.6776 41.6932 28.7571 42.0663 28.9162 42.3807C29.0791 42.6951 29.3082 42.9375 29.6037 43.108C29.8991 43.2784 30.2495 43.3636 30.6548 43.3636C30.9238 43.3636 31.17 43.3258 31.3935 43.25C31.617 43.1742 31.8082 43.0606 31.9673 42.9091C32.1264 42.7576 32.2476 42.572 32.331 42.3523L34.5696 42.5C34.456 43.0379 34.223 43.5076 33.8707 43.9091C33.5223 44.3068 33.0715 44.6174 32.5185 44.8409C31.9692 45.0606 31.3348 45.1705 30.6151 45.1705ZM35.527 38.1761V36.2727H43.4361V38.1761H40.6236V45H38.3168V38.1761H35.527Z" fill="#666666"/>
</svg>
