<svg width="60" height="60" viewBox="0 0 60 60" fill="none" xmlns="http://www.w3.org/2000/svg">
<circle cx="30" cy="30" r="29.5" stroke="black"/>
<path d="M29.6023 28.2386C28.8864 28.2273 28.1705 28.0909 27.4545 27.8295C26.7386 27.5682 26.0852 27.1278 25.4943 26.5085C24.9034 25.8835 24.429 25.0398 24.071 23.9773C23.7131 22.9091 23.5341 21.5682 23.5341 19.9545C23.5341 18.4091 23.679 17.0398 23.9688 15.8466C24.2585 14.6477 24.679 13.6392 25.2301 12.821C25.7813 11.9972 26.446 11.3722 27.2244 10.946C28.0085 10.5199 28.892 10.3068 29.875 10.3068C30.8523 10.3068 31.7216 10.5028 32.483 10.8949C33.25 11.2812 33.875 11.821 34.358 12.5142C34.8409 13.2074 35.1534 14.0057 35.2955 14.9091H33.2159C33.0227 14.125 32.6477 13.4744 32.0909 12.9574C31.5341 12.4403 30.7955 12.1818 29.875 12.1818C28.5227 12.1818 27.4574 12.7699 26.679 13.946C25.9063 15.1222 25.517 16.7727 25.5114 18.8977H25.6477C25.9659 18.4148 26.3438 18.0028 26.7812 17.6619C27.2244 17.3153 27.7131 17.0483 28.2472 16.8608C28.7813 16.6733 29.3466 16.5795 29.9432 16.5795C30.9432 16.5795 31.858 16.8295 32.6875 17.3295C33.517 17.8239 34.1818 18.5085 34.6818 19.3835C35.1818 20.2528 35.4318 21.25 35.4318 22.375C35.4318 23.4545 35.1903 24.4432 34.7074 25.3409C34.2244 26.233 33.5455 26.9432 32.6705 27.4716C31.8011 27.9943 30.7784 28.25 29.6023 28.2386ZM29.6023 26.3636C30.3182 26.3636 30.9602 26.1847 31.5284 25.8267C32.1023 25.4687 32.554 24.9886 32.8835 24.3864C33.2188 23.7841 33.3864 23.1136 33.3864 22.375C33.3864 21.6534 33.2244 20.9972 32.9006 20.4062C32.5824 19.8097 32.142 19.3352 31.5795 18.983C31.0227 18.6307 30.3864 18.4545 29.6705 18.4545C29.1307 18.4545 28.6278 18.5625 28.1619 18.7784C27.696 18.9886 27.2869 19.2784 26.9347 19.6477C26.5881 20.017 26.3153 20.4403 26.1165 20.9176C25.9176 21.3892 25.8182 21.8864 25.8182 22.4091C25.8182 23.1023 25.9801 23.75 26.304 24.3523C26.6335 24.9545 27.0824 25.4403 27.6506 25.8097C28.2244 26.179 28.875 26.3636 29.6023 26.3636Z" fill="#666666"/>
<path d="M21 43.1818L24.0455 36.2727H25.3182L21.5455 45H20.4545L16.75 36.2727H18L21 43.1818ZM17.5682 36.2727V45H16.2273V36.2727H17.5682ZM24.4318 45V36.2727H25.7727V45H24.4318ZM31.8864 45.1818C31.0455 45.1818 30.3201 44.9962 29.7102 44.625C29.1042 44.25 28.6364 43.7273 28.3068 43.0568C27.9811 42.3826 27.8182 41.5985 27.8182 40.7045C27.8182 39.8106 27.9811 39.0227 28.3068 38.3409C28.6364 37.6553 29.0947 37.1212 29.6818 36.7386C30.2727 36.3523 30.9621 36.1591 31.75 36.1591C32.2045 36.1591 32.6534 36.2348 33.0966 36.3864C33.5398 36.5379 33.9432 36.7841 34.3068 37.125C34.6705 37.4621 34.9602 37.9091 35.1761 38.4659C35.392 39.0227 35.5 39.7083 35.5 40.5227V41.0909H28.7727V39.9318H34.1364C34.1364 39.4394 34.0379 39 33.8409 38.6136C33.6477 38.2273 33.3712 37.9223 33.0114 37.6989C32.6553 37.4754 32.2348 37.3636 31.75 37.3636C31.2159 37.3636 30.7538 37.4962 30.3636 37.7614C29.9773 38.0227 29.6799 38.3636 29.4716 38.7841C29.2633 39.2045 29.1591 39.6553 29.1591 40.1364V40.9091C29.1591 41.5682 29.2727 42.1269 29.5 42.5852C29.7311 43.0398 30.0511 43.3864 30.4602 43.625C30.8693 43.8598 31.3447 43.9773 31.8864 43.9773C32.2386 43.9773 32.5568 43.928 32.8409 43.8295C33.1288 43.7273 33.3769 43.5758 33.5852 43.375C33.7936 43.1705 33.9545 42.9167 34.0682 42.6136L35.3636 42.9773C35.2273 43.4167 34.9981 43.803 34.6761 44.1364C34.3542 44.4659 33.9564 44.7235 33.483 44.9091C33.0095 45.0909 32.4773 45.1818 31.8864 45.1818ZM41.0852 45.1818C40.267 45.1818 39.5625 44.9886 38.9716 44.6023C38.3807 44.2159 37.9261 43.6837 37.608 43.0057C37.2898 42.3277 37.1307 41.553 37.1307 40.6818C37.1307 39.7955 37.2936 39.0133 37.6193 38.3352C37.9489 37.6534 38.4072 37.1212 38.9943 36.7386C39.5852 36.3523 40.2746 36.1591 41.0625 36.1591C41.6761 36.1591 42.2292 36.2727 42.7216 36.5C43.214 36.7273 43.6174 37.0455 43.9318 37.4545C44.2462 37.8636 44.4413 38.3409 44.517 38.8864H43.1761C43.0739 38.4886 42.8466 38.1364 42.4943 37.8295C42.1458 37.5189 41.6761 37.3636 41.0852 37.3636C40.5625 37.3636 40.1042 37.5 39.7102 37.7727C39.3201 38.0417 39.0152 38.4223 38.7955 38.9148C38.5795 39.4034 38.4716 39.9773 38.4716 40.6364C38.4716 41.3106 38.5777 41.8977 38.7898 42.3977C39.0057 42.8977 39.3087 43.286 39.6989 43.5625C40.0928 43.839 40.5549 43.9773 41.0852 43.9773C41.4337 43.9773 41.75 43.9167 42.0341 43.7955C42.3182 43.6742 42.5587 43.5 42.7557 43.2727C42.9527 43.0455 43.0928 42.7727 43.1761 42.4545H44.517C44.4413 42.9697 44.2538 43.4337 43.9545 43.8466C43.6591 44.2557 43.267 44.5814 42.7784 44.8239C42.2936 45.0625 41.7292 45.1818 41.0852 45.1818Z" fill="#666666"/>
</svg>
