<svg width="60" height="60" viewBox="0 0 60 60" fill="none" xmlns="http://www.w3.org/2000/svg">
<circle cx="30" cy="30" r="29.5" stroke="black"/>
<path d="M30.3636 10.3068C31.0795 10.3125 31.7955 10.4489 32.5114 10.7159C33.2273 10.983 33.8807 11.4261 34.4716 12.0455C35.0625 12.6591 35.5369 13.4972 35.8949 14.5597C36.2528 15.6222 36.4318 16.9545 36.4318 18.5568C36.4318 20.108 36.2841 21.4858 35.9886 22.6903C35.6989 23.8892 35.2784 24.9006 34.7273 25.7244C34.1818 26.5483 33.517 27.1733 32.733 27.5994C31.9545 28.0256 31.0739 28.2386 30.0909 28.2386C29.1136 28.2386 28.2415 28.0455 27.4744 27.6591C26.7131 27.267 26.0881 26.7244 25.5994 26.0312C25.1165 25.3324 24.8068 24.5227 24.6705 23.6023H26.75C26.9375 24.4034 27.3097 25.0653 27.8665 25.5881C28.429 26.1051 29.1705 26.3636 30.0909 26.3636C31.4375 26.3636 32.5 25.7756 33.2784 24.5994C34.0625 23.4233 34.4545 21.7614 34.4545 19.6136H34.3182C34 20.0909 33.6222 20.5028 33.1847 20.8494C32.7472 21.196 32.2614 21.4631 31.7273 21.6506C31.1932 21.8381 30.625 21.9318 30.0227 21.9318C29.0227 21.9318 28.1051 21.6847 27.2699 21.1903C26.4403 20.6903 25.7756 20.0057 25.2756 19.1364C24.7812 18.2614 24.5341 17.2614 24.5341 16.1364C24.5341 15.0682 24.7727 14.0909 25.25 13.2045C25.733 12.3125 26.4091 11.6023 27.2784 11.0739C28.1534 10.5455 29.1818 10.2898 30.3636 10.3068ZM30.3636 12.1818C29.6477 12.1818 29.0028 12.3608 28.429 12.7188C27.8608 13.071 27.4091 13.5483 27.0739 14.1506C26.7443 14.7472 26.5795 15.4091 26.5795 16.1364C26.5795 16.8636 26.7386 17.5256 27.0568 18.1222C27.3807 18.7131 27.821 19.1847 28.3778 19.5369C28.9403 19.8835 29.5795 20.0568 30.2955 20.0568C30.8352 20.0568 31.3381 19.9517 31.804 19.7415C32.2699 19.5256 32.6761 19.233 33.0227 18.8636C33.375 18.4886 33.6506 18.0653 33.8494 17.5938C34.0483 17.1165 34.1477 16.6193 34.1477 16.1023C34.1477 15.4205 33.983 14.7812 33.6534 14.1847C33.3295 13.5881 32.8807 13.1051 32.3068 12.7358C31.7386 12.3665 31.0909 12.1818 30.3636 12.1818Z" fill="#666666"/>
<path d="M21 43.1818L24.0455 36.2727H25.3182L21.5455 45H20.4545L16.75 36.2727H18L21 43.1818ZM17.5682 36.2727V45H16.2273V36.2727H17.5682ZM24.4318 45V36.2727H25.7727V45H24.4318ZM31.8864 45.1818C31.0455 45.1818 30.3201 44.9962 29.7102 44.625C29.1042 44.25 28.6364 43.7273 28.3068 43.0568C27.9811 42.3826 27.8182 41.5985 27.8182 40.7045C27.8182 39.8106 27.9811 39.0227 28.3068 38.3409C28.6364 37.6553 29.0947 37.1212 29.6818 36.7386C30.2727 36.3523 30.9621 36.1591 31.75 36.1591C32.2045 36.1591 32.6534 36.2348 33.0966 36.3864C33.5398 36.5379 33.9432 36.7841 34.3068 37.125C34.6705 37.4621 34.9602 37.9091 35.1761 38.4659C35.392 39.0227 35.5 39.7083 35.5 40.5227V41.0909H28.7727V39.9318H34.1364C34.1364 39.4394 34.0379 39 33.8409 38.6136C33.6477 38.2273 33.3712 37.9223 33.0114 37.6989C32.6553 37.4754 32.2348 37.3636 31.75 37.3636C31.2159 37.3636 30.7538 37.4962 30.3636 37.7614C29.9773 38.0227 29.6799 38.3636 29.4716 38.7841C29.2633 39.2045 29.1591 39.6553 29.1591 40.1364V40.9091C29.1591 41.5682 29.2727 42.1269 29.5 42.5852C29.7311 43.0398 30.0511 43.3864 30.4602 43.625C30.8693 43.8598 31.3447 43.9773 31.8864 43.9773C32.2386 43.9773 32.5568 43.928 32.8409 43.8295C33.1288 43.7273 33.3769 43.5758 33.5852 43.375C33.7936 43.1705 33.9545 42.9167 34.0682 42.6136L35.3636 42.9773C35.2273 43.4167 34.9981 43.803 34.6761 44.1364C34.3542 44.4659 33.9564 44.7235 33.483 44.9091C33.0095 45.0909 32.4773 45.1818 31.8864 45.1818ZM41.0852 45.1818C40.267 45.1818 39.5625 44.9886 38.9716 44.6023C38.3807 44.2159 37.9261 43.6837 37.608 43.0057C37.2898 42.3277 37.1307 41.553 37.1307 40.6818C37.1307 39.7955 37.2936 39.0133 37.6193 38.3352C37.9489 37.6534 38.4072 37.1212 38.9943 36.7386C39.5852 36.3523 40.2746 36.1591 41.0625 36.1591C41.6761 36.1591 42.2292 36.2727 42.7216 36.5C43.214 36.7273 43.6174 37.0455 43.9318 37.4545C44.2462 37.8636 44.4413 38.3409 44.517 38.8864H43.1761C43.0739 38.4886 42.8466 38.1364 42.4943 37.8295C42.1458 37.5189 41.6761 37.3636 41.0852 37.3636C40.5625 37.3636 40.1042 37.5 39.7102 37.7727C39.3201 38.0417 39.0152 38.4223 38.7955 38.9148C38.5795 39.4034 38.4716 39.9773 38.4716 40.6364C38.4716 41.3106 38.5777 41.8977 38.7898 42.3977C39.0057 42.8977 39.3087 43.286 39.6989 43.5625C40.0928 43.839 40.5549 43.9773 41.0852 43.9773C41.4337 43.9773 41.75 43.9167 42.0341 43.7955C42.3182 43.6742 42.5587 43.5 42.7557 43.2727C42.9527 43.0455 43.0928 42.7727 43.1761 42.4545H44.517C44.4413 42.9697 44.2538 43.4337 43.9545 43.8466C43.6591 44.2557 43.267 44.5814 42.7784 44.8239C42.2936 45.0625 41.7292 45.1818 41.0852 45.1818Z" fill="#666666"/>
</svg>
