<svg width="30" height="27" viewBox="0 0 30 27" fill="none" xmlns="http://www.w3.org/2000/svg">
<path d="M27.3243 4.03922H20.6065L20.2736 1.75348C20.1279 0.753867 19.2564 0 18.2462 0H11.7538C10.7436 0 9.87205 0.753867 9.72645 1.75359L9.39357 4.03922H2.6758C1.20035 4.03922 0 5.23957 0 6.71496V23.3627C0 24.8382 1.20035 26.0385 2.6758 26.0385H27.3243C28.7996 26.0385 30 24.8382 30 23.3627V6.71496C30 5.23957 28.7996 4.03922 27.3243 4.03922ZM11.4728 2.00789C11.4829 1.94048 11.5168 1.87891 11.5684 1.83431C11.6199 1.78972 11.6857 1.76503 11.7539 1.76473H18.2463C18.3144 1.76505 18.3802 1.78973 18.4318 1.83433C18.4834 1.87892 18.5173 1.94048 18.5274 2.00789L18.8232 4.03922H11.1769L11.4728 2.00789ZM28.2353 23.3628C28.2353 23.8651 27.8266 24.2739 27.3243 24.2739H2.6758C2.17342 24.2739 1.76467 23.8652 1.76467 23.3627V14.9519C2.54115 15.5585 3.5168 15.9214 4.57629 15.9214H11.4704V16.7841C11.4704 16.944 11.5139 17.101 11.5961 17.2381C11.6784 17.3752 11.7964 17.4874 11.9375 17.5627L14.5847 18.9744C14.7125 19.0426 14.8552 19.0783 15 19.0783C15.1448 19.0783 15.2875 19.0426 15.4153 18.9744L18.0625 17.5627C18.2036 17.4874 18.3216 17.3752 18.4038 17.2381C18.4861 17.101 18.5296 16.944 18.5296 16.7841V15.9214H25.4237C26.4831 15.9214 27.4588 15.5586 28.2353 14.952V23.3628ZM13.2352 16.2547V13.7058H16.7649V16.2547L15 17.196L13.2352 16.2547ZM28.2353 11.3451C28.2353 12.8954 26.974 14.1567 25.4237 14.1567H18.5296V12.8234C18.5296 12.3361 18.1345 11.941 17.6472 11.941H12.3528C11.8655 11.941 11.4704 12.336 11.4704 12.8234V14.1567H4.57629C3.02596 14.1568 1.76467 12.8955 1.76467 11.3452V6.71496C1.76467 6.27539 2.07762 5.90754 2.49234 5.82246C2.55269 5.81009 2.61414 5.80389 2.67574 5.80395H27.3242C27.387 5.80395 27.4483 5.81033 27.5075 5.82246C27.9223 5.9076 28.2352 6.27545 28.2352 6.71496V11.3451H28.2353Z" fill="#666666"/>
</svg>
