<svg width="30" height="30" viewBox="0 0 30 30" fill="none" xmlns="http://www.w3.org/2000/svg">
<path d="M29.3182 12.2727C29.695 12.2727 30 11.9696 30 11.5928V8.8658C30 8.62546 29.8735 8.40245 29.6664 8.27991L16.329 0.359282C16.323 0.355256 16.317 0.351932 16.311 0.348608C15.482 -0.110788 14.5472 -0.124723 13.6703 0.35794L0.3336 8.27991C0.231896 8.34018 0.147646 8.42591 0.089149 8.52864C0.0306525 8.63138 -7.2648e-05 8.74758 1.28987e-07 8.8658V11.5928C1.28987e-07 11.9696 0.304964 12.2727 0.681839 12.2727H2.72729V24.546C1.22312 24.546 1.28987e-07 25.769 1.28987e-07 27.273V29.3182C-5.02945e-05 29.4078 0.017552 29.4964 0.0518005 29.5792C0.0860491 29.6619 0.136272 29.7371 0.199597 29.8004C0.262923 29.8638 0.338109 29.914 0.420856 29.9482C0.503602 29.9825 0.592287 30 0.681839 30H29.3182C29.4077 30 29.4964 29.9825 29.5791 29.9482C29.6619 29.914 29.7371 29.8638 29.8004 29.8004C29.8637 29.7371 29.914 29.6619 29.9482 29.5792C29.9824 29.4964 30.0001 29.4078 30 29.3182V27.273C30 25.769 28.7769 24.546 27.2727 24.546V12.2727H29.3182ZM28.6363 27.2727V28.6363H1.36361V27.2727C1.36361 26.521 1.97552 25.9091 2.72723 25.9091H27.2727C28.0244 25.909 28.6363 26.5209 28.6363 27.2727ZM4.0909 24.5454V12.2727H6.81819V24.5454H4.0909ZM8.18181 24.5454V12.2727H12.2727V24.5454H8.18181ZM13.6363 24.5454V12.2727H16.3636V24.5454H13.6363ZM17.7272 24.5454V12.2727H21.8181V24.5454H17.7272ZM23.1818 24.5454V12.2727H25.9091V24.5454H23.1818ZM1.36361 10.9091V9.25182L14.3468 1.53874C14.7716 1.30505 15.223 1.30569 15.6425 1.53407L28.6363 9.25182V10.9091H1.36361Z" fill="#666666"/>
</svg>
