<svg width="32" height="30" viewBox="0 0 32 30" fill="none" xmlns="http://www.w3.org/2000/svg">
<path d="M29.9585 14.4947V4.43681C29.9585 1.99031 27.9681 0 25.5217 0H6.35075C3.90425 0 1.91394 1.99037 1.91394 4.43681V14.6244C0.728938 15.8633 0 17.5419 0 19.3875V27.0139C0 28.4139 1.13894 29.5529 2.53894 29.5529C3.93888 29.5529 5.07781 28.4139 5.07781 27.0139V26.2263H26.9223V27.0139C26.9223 28.4139 28.0612 29.5529 29.4611 29.5529C30.8611 29.5529 32 28.4139 32 27.0139V19.3875C32 17.4766 31.2185 15.7448 29.9585 14.4947ZM6.35075 1.25H25.5217C27.2789 1.25 28.7085 2.67962 28.7085 4.43681V13.511C28.3232 13.2737 27.9154 13.075 27.4911 12.9178V10.8394C27.4911 8.99694 25.9921 7.49794 24.1496 7.49794H18.7166C17.5981 7.49794 16.6069 8.05088 16.0001 8.89719C15.3933 8.05088 14.4021 7.49794 13.2836 7.49794H7.85056C6.00806 7.49794 4.50906 8.99687 4.50906 10.8394V12.9178C4.03743 13.0925 3.58637 13.3183 3.164 13.5914V4.43681C3.16394 2.67962 4.5935 1.25 6.35075 1.25ZM6.89581 12.4917C6.50863 12.4917 6.12887 12.5243 5.75894 12.5859V10.8394C5.75894 9.68619 6.69719 8.74794 7.85044 8.74794H13.2834C14.4367 8.74794 15.3749 9.68619 15.3749 10.8394V12.4918H6.89581V12.4917ZM16.625 10.8394C16.625 9.68613 17.5632 8.74788 18.7165 8.74788H24.1495C25.3027 8.74788 26.241 9.68613 26.241 10.8394V12.5859C25.8653 12.5232 25.485 12.4917 25.1041 12.4916H16.625V10.8394ZM6.89581 13.7417H25.1041C28.2172 13.7417 30.7499 16.2744 30.7499 19.3875V21.2417H24.4814C24.1363 21.2417 23.8564 21.5216 23.8564 21.8667C23.8564 22.2118 24.1363 22.4917 24.4814 22.4917H30.75V24.9764H1.25V22.4917H18.2314C18.5766 22.4917 18.8564 22.2118 18.8564 21.8667C18.8564 21.5216 18.5766 21.2417 18.2314 21.2417H1.25V19.3875C1.25 16.2744 3.78269 13.7417 6.89581 13.7417ZM3.82781 27.0139C3.82781 27.7246 3.24963 28.3029 2.53894 28.3029C1.82825 28.3029 1.25 27.7246 1.25 27.0139V26.2263H3.82781V27.0139ZM29.4611 28.3029C28.7504 28.3029 28.1722 27.7246 28.1722 27.0139V26.2263H30.75V27.0139C30.75 27.7246 30.1718 28.3029 29.4611 28.3029Z" fill="#666666"/>
</svg>
