<svg width="25" height="30" viewBox="0 0 25 30" fill="none" xmlns="http://www.w3.org/2000/svg">
<path d="M24.9935 7.4685C24.991 7.42469 24.9824 7.38144 24.968 7.34C24.9625 7.324 24.9585 7.3085 24.9515 7.293C24.9272 7.2386 24.8933 7.18898 24.8515 7.1465L17.8515 0.1465C17.809 0.1047 17.7594 0.0708335 17.705 0.0465C17.6895 0.0395 17.674 0.0355 17.6585 0.03C17.6167 0.0156211 17.5731 0.00687756 17.529 0.004C17.5205 0.0055 17.511 0 17.5 0H3.5C3.36739 0 3.24022 0.0526784 3.14645 0.146447C3.05268 0.240215 3 0.367392 3 0.5V2H0.5C0.367392 2 0.240215 2.05268 0.146447 2.14645C0.0526785 2.24021 0 2.36739 0 2.5V29.5C0 29.6326 0.0526785 29.7598 0.146447 29.8536C0.240215 29.9473 0.367392 30 0.5 30H21.5C21.6326 30 21.7598 29.9473 21.8536 29.8536C21.9473 29.7598 22 29.6326 22 29.5V27H24.5C24.6326 27 24.7598 26.9473 24.8536 26.8536C24.9473 26.7598 25 26.6326 25 26.5V7.5C25 7.489 24.9945 7.4795 24.9935 7.4685ZM18 1.707L23.293 7H18V1.707ZM21 29H1V3H3V26.5C3 26.6326 3.05268 26.7598 3.14645 26.8536C3.24022 26.9473 3.36739 27 3.5 27H21V29ZM24 26H4V1H17V7.5C17 7.63261 17.0527 7.75979 17.1464 7.85355C17.2402 7.94732 17.3674 8 17.5 8H24V26Z" fill="#666666"/>
</svg>
