<svg width="30" height="36" viewBox="0 0 30 36" fill="none" xmlns="http://www.w3.org/2000/svg">
<path d="M14.7732 17.3212C17.1527 17.3212 19.213 16.4677 20.8969 14.7838C22.5803 13.1002 23.434 11.0402 23.434 8.66035C23.434 6.28122 22.5806 4.221 20.8966 2.5368C19.2127 0.853443 17.1524 0 14.7732 0C12.3933 0 10.3332 0.853443 8.64961 2.53708C6.96604 4.22072 6.11224 6.28101 6.11224 8.66035C6.11224 11.0402 6.96597 13.1005 8.64968 14.7841C10.3338 16.4675 12.3941 17.3212 14.7731 17.3212H14.7732ZM10.1398 4.02702C11.4317 2.73513 12.9472 2.1072 14.7732 2.1072C16.5989 2.1072 18.1146 2.73513 19.4067 4.02702C20.6986 5.31913 21.3268 6.83485 21.3268 8.66028C21.3268 10.4863 20.6986 12.0018 19.4067 13.2939C18.1146 14.5861 16.5989 15.214 14.7732 15.214C12.9477 15.214 11.4323 14.5858 10.1398 13.2939C8.84766 12.0021 8.21944 10.4863 8.21944 8.66035C8.21944 6.83485 8.84766 5.31913 10.1398 4.02702ZM29.9273 27.65C29.8787 26.9494 29.7805 26.185 29.6359 25.378C29.49 24.5648 29.3021 23.7961 29.0771 23.0935C28.8445 22.3673 28.5287 21.6503 28.1378 20.963C27.7325 20.2497 27.2564 19.6286 26.7219 19.1176C26.1631 18.5829 25.4789 18.153 24.6877 17.8394C23.8993 17.5275 23.0255 17.3695 22.0908 17.3695C21.7237 17.3695 21.3688 17.5201 20.6832 17.9665C20.1959 18.2838 19.7071 18.5989 19.2169 18.9118C18.7458 19.2119 18.1077 19.4931 17.3195 19.7477C16.5506 19.9966 15.7698 20.1228 14.9989 20.1228C14.2286 20.1228 13.4478 19.9966 12.6782 19.7477C11.891 19.4934 11.2526 19.2122 10.7823 18.9121C10.2366 18.5634 9.74289 18.2451 9.31462 17.9661C8.62959 17.5198 8.27457 17.3692 7.90755 17.3692C6.97257 17.3692 6.09911 17.5275 5.31091 17.8397C4.52025 18.1527 3.83579 18.5826 3.2764 19.1178C2.74201 19.6292 2.26578 20.25 1.86083 20.963C1.47049 21.6502 1.15445 22.3671 0.921777 23.0938C0.697039 23.7964 0.509172 24.5648 0.363233 25.378C0.218347 26.1839 0.120446 26.9485 0.0718459 27.6509C0.0240891 28.3375 0 29.0522 0 29.7742C0 31.6513 0.59668 33.1708 1.77332 34.2914C2.93543 35.3974 4.47285 35.9581 6.34295 35.9581H23.6571C25.5266 35.9581 27.064 35.3974 28.2264 34.2915C29.4033 33.1716 30 31.6515 30 29.7739C29.9997 29.0494 29.9754 28.3348 29.9273 27.65ZM26.7735 32.7648C26.0056 33.4956 24.9862 33.8509 23.6567 33.8509H6.34302C5.01334 33.8509 3.99388 33.4956 3.22626 32.7651C2.47324 32.0482 2.10727 31.0697 2.10727 29.7742C2.10727 29.1004 2.12946 28.4352 2.17399 27.7965C2.21725 27.1699 2.30588 26.4816 2.43735 25.7502C2.56707 25.0279 2.73218 24.35 2.92862 23.7363C3.11712 23.1478 3.37416 22.5652 3.69294 22.0039C3.99718 21.4689 4.34721 21.0099 4.73348 20.6402C5.09481 20.2942 5.55026 20.0111 6.08682 19.7988C6.58307 19.6023 7.14084 19.4948 7.7463 19.4785C7.82004 19.5179 7.95151 19.5927 8.16438 19.7315C8.59756 20.0138 9.09683 20.3359 9.64885 20.6884C10.2711 21.0851 11.0726 21.4434 12.0304 21.7525C13.0095 22.0691 14.0081 22.2299 14.9992 22.2299C15.9905 22.2299 16.9893 22.0691 17.9679 21.7528C18.9264 21.4431 19.7277 21.0851 20.3508 20.6878C20.9157 20.3269 21.401 20.0141 21.8341 19.7315C22.047 19.5929 22.1784 19.5178 22.2522 19.4786C22.858 19.4948 23.4157 19.6023 23.9122 19.7987C24.4485 20.0111 24.904 20.2945 25.2653 20.6401C25.6515 21.0096 26.0016 21.4687 26.3058 22.0042C26.6249 22.5652 26.8823 23.1482 27.0704 23.7361C27.2671 24.3506 27.4325 25.0282 27.562 25.7499C27.6931 26.4827 27.782 27.1713 27.8254 27.7968V27.7974C27.8701 28.4335 27.8926 29.0985 27.8929 29.7742C27.8926 31.07 27.5266 32.0483 26.7736 32.7648H26.7735Z" fill="#666666"/>
</svg>
