<svg width="80" height="80" viewBox="0 0 80 80" fill="none" xmlns="http://www.w3.org/2000/svg">
<rect width="80" height="80" rx="40" fill="#48C95F"/>
<path d="M55.8537 24.125C51.9024 20.1875 46.6341 18 41.0732 18C29.5122 18 20.1463 27.3333 20.1463 38.8542C20.1463 42.5 21.1707 46.1458 22.9268 49.2083L20 60L31.122 57.0833C34.1951 58.6875 37.561 59.5625 41.0732 59.5625C52.6341 59.5625 62 50.2292 62 38.7083C61.8537 33.3125 59.8049 28.0625 55.8537 24.125ZM51.1707 46.2917C50.7317 47.4583 48.6829 48.625 47.6585 48.7708C46.7805 48.9167 45.6098 48.9167 44.439 48.625C43.7073 48.3333 42.6829 48.0417 41.5122 47.4583C36.2439 45.2708 32.8781 40.0208 32.5854 39.5833C32.2927 39.2917 30.3902 36.8125 30.3902 34.1875C30.3902 31.5625 31.7073 30.3958 32.1463 29.8125C32.5854 29.2292 33.1707 29.2292 33.6098 29.2292C33.9024 29.2292 34.3415 29.2292 34.6341 29.2292C34.9268 29.2292 35.3659 29.0833 35.8049 30.1042C36.2439 31.125 37.2683 33.75 37.4146 33.8958C37.561 34.1875 37.561 34.4792 37.4146 34.7708C37.2683 35.0625 37.1219 35.3542 36.8293 35.6458C36.5366 35.9375 36.2439 36.375 36.0976 36.5208C35.8049 36.8125 35.5122 37.1042 35.8049 37.5417C36.0976 38.125 37.1219 39.7292 38.7317 41.1875C40.7805 42.9375 42.3902 43.5208 42.9756 43.8125C43.561 44.1042 43.8537 43.9583 44.1463 43.6667C44.439 43.375 45.4634 42.2083 45.7561 41.625C46.0488 41.0417 46.4878 41.1875 46.9268 41.3333C47.3658 41.4792 50 42.7917 50.439 43.0833C51.0244 43.375 51.3171 43.5208 51.4634 43.6667C51.6097 44.1042 51.6098 45.125 51.1707 46.2917Z" fill="white"/>
</svg>
